<svg width="399" height="809" viewBox="0 0 399 809" fill="none" xmlns="http://www.w3.org/2000/svg">
<path fill-rule="evenodd" clip-rule="evenodd" d="M-90.9172 273.994C-83.0604 280.907 -75.8323 288.808 -69.5469 297.367C-62.3186 306.584 -53.8334 313.168 -42.8339 316.789C-40.3197 317.448 -37.8055 318.765 -35.2913 319.423C-24.2919 317.777 -16.7495 323.373 -11.4069 332.591C-7.32139 339.504 -3.2358 346.088 2.42106 351.355C3.36387 352.342 3.6781 353.33 3.36383 354.976C0.535398 357.939 -2.60726 355.964 -5.43569 354.976C-16.4351 349.709 -22.092 338.846 -29.6345 330.286C-30.5773 328.97 -30.8916 329.628 -31.2059 330.945C-36.5485 331.932 -41.8911 332.92 -45.9766 337.2C-46.6051 337.2 -47.2336 337.2 -47.8621 337.2C-53.2047 335.224 -53.8333 341.479 -57.2902 342.796C-59.1759 342.796 -60.7473 343.783 -62.3187 344.771C-67.347 345.1 -69.5467 340.491 -72.3752 337.858C-76.4607 334.237 -80.2319 330.616 -84.946 328.64C-91.5456 326.007 -94.3741 319.094 -100.659 316.131C-101.288 315.473 -101.602 315.143 -101.917 314.485C-103.802 310.864 -104.431 306.584 -99.0881 307.243C-91.8599 308.23 -89.9744 303.622 -87.4603 298.684C-87.4603 298.025 -86.8317 297.367 -86.2031 297.038C-85.8889 296.709 -85.2602 296.379 -84.946 296.379C-83.3746 295.721 -81.8034 296.05 -80.5463 296.379C-81.4891 294.733 -82.432 292.758 -84.3176 291.771C-84.9461 291.441 -85.2604 290.783 -85.8889 290.454C-86.8317 289.466 -87.7746 288.808 -89.0316 287.82C-91.8601 285.845 -92.4885 282.224 -95.0026 279.92C-98.1453 277.615 -99.7167 275.311 -95.9454 272.348C-94.0598 271.031 -92.8027 272.348 -91.2314 273.665L-90.9172 273.994Z" fill="#9D0122"/>
<path fill-rule="evenodd" clip-rule="evenodd" d="M203.239 64.9555C202.924 60.3467 205.124 58.7008 209.21 59.03C212.352 59.03 215.495 59.6884 218.009 57.384C219.581 58.0424 221.152 58.7008 222.409 60.0176C224.609 62.3219 223.038 64.9555 223.038 67.2599C227.123 68.2475 230.894 68.5766 234.351 66.2723C238.437 66.2723 238.123 71.2102 240.637 73.1853C240.637 74.8313 240.008 75.8189 238.751 76.8065C237.494 77.4649 235.923 78.4525 236.865 80.4277C239.065 86.3532 237.808 91.9494 236.865 97.875C235.608 103.142 231.209 102.155 227.752 103.471C225.866 104.13 227.752 104.788 227.752 105.446C227.752 108.08 226.18 109.726 224.295 109.397C218.324 108.738 212.352 110.714 206.381 108.738C202.296 105.446 200.41 100.509 196.639 97.2166C195.382 96.229 193.81 96.229 192.868 95.2414C191.925 90.3035 196.639 85.6948 193.81 80.4277C197.582 73.8438 203.867 69.5642 207.324 63.6387C206.381 63.6387 205.438 66.9307 203.239 65.2847L203.239 64.9555Z" fill="#93031D"/>
<path fill-rule="evenodd" clip-rule="evenodd" d="M153.899 90.9619C157.356 89.3159 161.442 90.6326 164.584 87.9991C166.784 88.6575 168.67 86.6823 170.87 87.3407C172.441 89.9743 174.013 92.937 173.698 95.8998C172.127 110.055 175.898 123.552 178.098 137.378C178.098 139.683 177.155 141.329 176.527 143.304C174.327 149.888 168.356 151.205 163.956 146.267C160.499 142.645 157.67 138.366 156.413 133.099C155.156 127.502 152.956 122.565 150.128 117.627C142.9 104.459 143.528 101.496 153.899 90.6327L153.899 90.9619Z" fill="#840412"/>
<path fill-rule="evenodd" clip-rule="evenodd" d="M370.117 -39.0701C370.745 -37.7534 370.745 -36.4366 370.431 -34.7906C370.431 -33.803 371.059 -33.1447 372.002 -32.8155C372.631 -30.5111 376.402 -27.8775 372.316 -25.9023C369.488 -24.5856 368.545 -27.8775 367.288 -30.1819C366.345 -32.1571 365.403 -33.803 364.774 -35.7782C364.46 -36.4366 364.145 -37.095 363.517 -37.7534C363.203 -38.4118 362.888 -39.0701 362.574 -39.7285C362.574 -40.3869 362.26 -41.0453 361.946 -41.7037C361.631 -44.6665 359.746 -46.3124 357.546 -47.9584C355.974 -48.2876 355.032 -50.2628 352.832 -49.9336C352.832 -44.0081 356.289 -39.7285 358.803 -34.7906C359.117 -34.1322 359.431 -33.4738 359.746 -32.8155C359.746 -32.1571 360.06 -31.4987 360.374 -30.8403C360.374 -28.5359 361.317 -26.5608 363.517 -26.2316C366.66 -25.5732 370.117 -25.244 372.945 -22.9396C373.574 -24.5856 372.945 -27.8775 376.402 -27.2192C382.373 -18.3309 387.401 -9.11341 388.03 2.07921C389.287 6.35874 387.087 7.67551 383.944 6.02953C381.116 4.71275 378.288 5.04194 375.773 3.39597C373.888 2.07918 372.631 2.73758 372.002 5.04194C369.488 9.65066 365.717 9.65066 360.689 5.04194C360.689 8.66308 365.717 9.65066 364.46 13.2718C361.317 14.2594 358.489 14.9178 355.66 13.2718C353.775 11.955 353.775 9.9799 353.146 8.00472C352.832 6.35875 353.146 4.05439 351.889 3.0668C346.861 -1.54193 349.375 -6.47989 351.889 -10.7594C358.174 -22.9396 357.86 -28.2067 349.689 -39.0701C349.689 -39.0701 349.689 -39.3993 349.689 -39.7285C346.232 -43.6789 345.603 -48.946 343.718 -53.8839C341.518 -60.1386 342.461 -61.4554 349.689 -62.1138C353.775 -59.151 358.174 -56.1883 362.574 -53.5547C367.288 -50.9212 369.802 -46.9708 369.174 -41.3745C369.174 -40.3869 369.802 -39.7285 370.117 -39.0701Z" fill="#91031C"/>
<path fill-rule="evenodd" clip-rule="evenodd" d="M276.15 263.131C278.35 262.143 280.55 261.156 282.75 259.839C287.15 258.193 291.55 257.535 295.949 258.522C304.435 264.118 307.263 283.212 300.663 291.112C298.149 294.075 295.007 295.063 291.55 293.417C291.235 293.417 290.607 292.758 290.292 292.758C275.522 291.771 273.008 279.92 269.551 268.398C270.808 265.106 272.065 262.143 276.15 262.802L276.15 263.131Z" fill="#980322"/>
<path fill-rule="evenodd" clip-rule="evenodd" d="M161.755 77.4648C160.813 78.7816 159.555 80.7567 157.67 79.44C153.584 76.4772 149.499 75.8188 144.785 77.4648C143.842 77.4648 142.899 76.8064 142.585 75.8188C142.585 73.1852 140.071 73.1853 138.813 71.8685C129.7 63.6386 127.5 50.8 136.614 42.8993C140.385 46.5205 144.785 40.595 148.556 43.2285C150.442 44.2161 150.756 45.5329 150.127 47.8372C149.499 49.154 149.185 50.8 148.556 52.1168C146.042 56.7255 150.442 59.0299 151.699 62.3218C152.013 63.6386 153.898 62.651 154.527 61.6634C156.098 58.0423 157.67 53.1044 154.527 51.1292C151.384 48.8248 151.07 44.5453 147.927 42.8993C147.613 38.6198 150.442 37.6322 153.27 36.3154C159.241 37.9614 167.412 35.3278 168.984 45.2037C168.984 47.1788 165.841 49.1541 168.984 50.8C170.555 52.7752 171.498 55.0795 171.183 57.7131C168.984 61.005 165.527 63.3094 164.898 67.9182C164.269 71.2101 161.127 71.5393 158.613 72.8561C161.755 72.1977 162.698 73.5144 162.384 76.4772C162.384 77.1356 162.384 77.4648 161.755 77.794L161.755 77.4648Z" fill="#A70737"/>
<path fill-rule="evenodd" clip-rule="evenodd" d="M237.181 74.173C238.438 74.173 239.381 73.5146 240.324 72.5271C239.695 71.8687 239.381 70.8811 239.695 69.8935C240.009 69.2351 240.638 69.2351 241.266 69.2351C241.266 71.8687 241.895 74.5023 242.209 77.1358C242.209 77.7942 242.838 78.4526 243.152 79.111C243.466 79.4401 244.095 79.7694 244.409 80.0985C245.666 81.0861 246.923 81.7445 247.866 82.7321C253.523 88.3284 253.837 88.6576 249.752 96.2291C248.809 98.2042 249.752 100.838 247.866 102.484C244.409 102.484 243.781 107.093 240.638 107.422C236.867 105.776 237.181 108.08 238.124 110.384C237.181 117.298 232.153 120.589 226.496 122.565C223.982 123.552 221.467 124.54 218.639 124.869C216.125 124.869 213.925 123.552 212.354 121.577C210.154 118.614 208.268 119.931 206.382 121.248C203.554 122.235 203.868 124.54 203.554 126.844C203.554 129.149 203.554 131.453 200.097 131.453C200.097 127.832 200.411 123.881 196.011 121.906C195.069 121.577 194.44 119.931 195.069 118.614C195.697 117.627 196.64 117.627 197.583 117.298L198.211 117.298C203.659 116.639 206.278 113.567 206.068 108.08C209.211 108.08 210.468 105.117 212.354 103.471C213.925 103.801 213.925 105.447 214.868 106.105C216.125 107.422 217.068 107.422 217.068 105.447C217.068 102.484 218.325 102.484 219.896 104.459C220.525 105.447 221.467 106.763 222.724 106.763C224.61 106.763 226.81 106.434 225.239 103.142C225.239 101.167 225.239 99.521 228.381 98.8626C230.267 98.5334 233.41 99.8502 234.352 96.5583C238.752 92.2788 240.952 87.0116 238.124 81.0861C236.867 78.7818 235.924 76.4774 237.181 73.8439L237.181 74.173Z" fill="#9A0426"/>
<path fill-rule="evenodd" clip-rule="evenodd" d="M170.556 387.237C169.299 388.554 167.727 388.883 165.842 389.212C162.385 389.871 159.242 390.529 157.985 394.809C157.671 396.125 155.471 400.405 151.699 395.796C149.185 392.504 143.843 394.479 140.071 395.796C135.672 397.113 131.586 396.784 127.501 395.467C126.872 394.15 125.301 393.492 125.301 391.846C125.301 391.188 125.301 390.529 125.929 389.871C127.501 387.896 129.7 388.225 131.586 388.883C130.958 386.908 128.758 386.908 127.815 385.262C124.044 378.349 127.815 374.728 132.843 371.765C138.5 371.765 144.157 368.802 149.5 373.082C150.757 378.678 147.3 382.958 146.043 387.566C148.243 386.25 147.3 381.312 151.071 380.653C154.214 379.995 156.728 381.97 159.87 382.628C158.928 380.324 157.356 380.653 155.785 380.324C153.585 380.324 151.071 380.653 150.442 377.69C149.814 375.057 151.385 373.411 153.899 372.423C159.242 372.423 164.584 371.107 169.927 370.448C174.641 370.777 174.641 374.728 174.641 378.349C174.641 381.97 176.213 386.908 170.556 387.896L170.556 387.237Z" fill="#B10D4B"/>
<path fill-rule="evenodd" clip-rule="evenodd" d="M28.5047 92.937C23.1621 98.2041 20.9622 98.5333 15.3053 94.2538C12.4769 91.9494 9.64846 89.9743 5.87722 88.6575C0.848899 87.0115 -1.66518 81.7444 -3.86507 76.8064C-4.49361 75.4897 -3.86511 74.5021 -2.9223 73.5145C0.534668 68.9058 11.8484 65.943 16.5625 68.5766C17.191 68.9058 17.8195 69.8933 18.448 70.8809C20.3336 73.5145 22.8478 75.8189 25.362 77.4648C27.5619 79.1108 29.7617 77.794 31.9616 78.4524C32.5901 78.4524 32.9045 79.1108 33.2187 79.7692C33.2187 83.7195 30.3903 85.3655 26.9333 86.3531C27.5619 87.9991 30.076 87.9991 30.076 89.9742C30.076 90.3034 29.7617 90.9618 29.4475 91.291C29.1332 91.9494 28.819 92.2786 28.1905 92.937L28.5047 92.937Z" fill="#9C0627"/>
<path fill-rule="evenodd" clip-rule="evenodd" d="M376.402 1.42092C379.545 3.06689 383.63 1.42089 386.145 5.04203C386.773 5.70042 387.716 3.72526 388.345 2.73767C392.116 8.66318 392.116 15.9054 394.001 22.1601C394.63 23.8061 394.001 25.7813 393.059 27.4273C391.802 30.7192 392.116 33.682 393.059 37.3031C394.316 41.9118 393.373 46.8498 391.173 46.8498C387.402 46.8498 386.145 43.2286 384.573 40.5951C383.002 38.2907 383.002 35.328 383.002 32.3652C383.002 26.4397 380.173 21.5018 376.717 17.2222C372.317 11.6259 371.374 11.6259 364.774 14.2595C360.689 11.9551 356.289 10.3091 355.975 4.05443C355.975 1.09168 356.918 0.43331 359.432 1.0917C363.831 2.07928 365.717 5.37125 367.603 9.65078C368.86 7.34642 369.488 6.02962 370.431 4.38365C372.002 2.40848 373.888 1.42092 376.402 1.42092Z" fill="#9B031F"/>
<path fill-rule="evenodd" clip-rule="evenodd" d="M91.0445 55.4087C92.3016 58.7007 93.5587 62.651 91.0445 65.6138C87.5876 69.2349 83.1877 71.21 78.1594 71.5392C74.0738 71.5392 70.6169 70.8808 67.1599 68.2473C67.4742 65.9429 66.5314 64.297 65.5886 62.3218C62.1316 54.4211 64.0172 49.4832 71.2454 45.5329C78.7879 41.5825 85.702 43.2285 89.4732 49.8124C89.4732 52.7752 86.0162 54.7503 87.2733 57.7131C87.2733 55.0795 87.2732 51.4584 91.3587 55.4087L91.0445 55.4087Z" fill="#A50834"/>
<path fill-rule="evenodd" clip-rule="evenodd" d="M192.869 367.156C200.411 365.181 207.954 362.877 215.496 360.902C220.839 359.585 225.867 358.597 230.267 354.976C230.895 354.318 231.524 353.989 232.152 353.989C236.238 353.33 240.638 353.001 242.523 357.281C244.723 362.548 238.752 362.548 236.238 364.523C228.067 368.144 219.582 370.778 212.353 376.045C208.896 378.678 204.811 377.691 201.04 378.349C198.526 378.678 195.383 379.666 195.383 375.057C195.383 372.424 193.183 370.119 193.497 367.156L192.869 367.156Z" fill="#B91B5F"/>
<path fill-rule="evenodd" clip-rule="evenodd" d="M269.864 268.069C273.007 272.677 275.835 277.286 275.835 283.541C275.835 286.504 277.721 288.149 280.549 288.149C284.006 288.479 287.149 289.795 290.291 291.441C294.691 293.746 296.577 293.087 299.405 288.808C300.348 287.491 301.605 285.845 301.605 284.199C302.234 274.982 302.548 265.764 294.691 258.851C295.32 258.193 295.948 257.864 296.891 258.851C302.548 261.156 305.691 264.447 304.748 271.361C304.119 276.957 305.691 282.553 304.119 288.149C301.92 296.05 295.948 298.684 289.034 294.733C285.892 293.087 282.749 291.771 279.292 291.771C273.321 291.771 272.064 290.454 271.75 284.199C271.75 280.578 270.807 277.286 268.921 273.994C267.35 271.361 265.778 269.056 262.95 267.41C258.55 264.777 254.779 261.155 251.008 257.534C246.922 253.913 245.665 245.683 248.179 240.416C250.694 235.149 254.779 234.491 262.007 237.783C262.95 240.745 264.207 243.708 259.807 244.696C252.893 246.013 252.579 248.317 257.922 254.901C258.55 255.23 258.864 255.888 259.493 256.218C261.379 258.193 262.95 260.168 265.464 261.485C267.036 262.472 267.978 263.789 269.235 265.106C269.55 265.764 269.864 266.423 269.864 267.081C269.864 267.41 269.864 267.739 269.864 268.069Z" fill="#8F0314"/>
<path fill-rule="evenodd" clip-rule="evenodd" d="M385.202 165.689C387.716 173.919 387.402 181.82 382.688 189.391C381.116 192.025 379.231 194.658 380.174 197.95C380.802 199.925 379.545 200.913 378.288 201.901C375.46 203.547 374.831 206.838 373.26 209.472C372.317 209.472 371.374 209.472 370.431 209.472C369.803 209.472 369.174 208.814 368.86 208.484C367.289 206.838 365.717 205.192 364.46 203.217C364.146 201.901 363.517 200.584 364.46 199.596C368.546 196.304 369.803 191.366 371.06 186.428C372.317 181.161 376.402 176.553 376.088 170.627C377.345 165.36 379.545 162.068 385.202 166.018L385.202 165.689Z" fill="#B1104C"/>
<path fill-rule="evenodd" clip-rule="evenodd" d="M6.19202 378.02C4.62067 378.02 2.73497 377.032 1.79216 377.691C-3.8647 380.983 -9.20737 377.691 -13.6072 375.715C-19.264 372.753 -24.9208 372.753 -30.5776 373.411C-38.4344 374.069 -44.0913 371.765 -46.9197 363.864C-48.1768 359.585 -50.3766 358.927 -54.1479 360.572C-55.4049 361.231 -56.662 361.889 -58.2333 360.902C-58.8619 358.268 -56.3478 356.951 -55.7192 354.647C-55.7192 354.647 -55.0907 354.318 -54.7764 353.989C-54.4622 353.989 -54.1479 353.989 -53.8337 353.659C-49.1196 353.33 -45.0341 355.635 -42.8342 358.927C-38.7487 364.523 -34.3489 368.144 -28.0635 366.169C-29.0063 365.51 -30.8918 364.194 -31.5204 361.56C-31.5204 361.231 -31.5205 360.572 -31.8348 360.243C-31.8348 360.572 -31.8348 361.231 -31.8348 361.56C-31.8348 361.889 -32.149 362.548 -32.7775 362.877C-37.4916 364.194 -47.5482 356.951 -48.491 351.355C-48.1768 350.697 -47.5482 350.367 -46.9197 350.038C-45.0341 349.38 -42.8341 350.038 -40.9485 350.038C-40.32 350.038 -39.6915 350.367 -39.0629 350.697C-33.0918 352.343 -28.0635 354.976 -20.8353 353.659C-14.8642 352.343 -10.15 358.597 -7.95013 364.852C-7.95014 366.498 -7.95029 367.815 -8.8931 369.131C-8.57883 370.119 -12.0356 370.448 -9.52149 371.436C-6.37879 372.753 -3.23624 374.069 0.535003 374.069C3.04916 374.069 6.82048 374.069 6.50621 378.678L6.19202 378.02Z" fill="#A00228"/>
<path fill-rule="evenodd" clip-rule="evenodd" d="M3.36289 354.976C2.10581 351.684 -0.722539 350.038 -3.2367 347.734C-8.57929 342.796 -11.722 335.883 -15.8075 329.957C-19.893 323.702 -25.2358 320.74 -32.464 321.398C-33.721 321.398 -36.5494 323.044 -35.2923 319.423C-30.8925 318.106 -26.807 318.435 -22.7215 319.423C-13.6076 322.715 -8.26502 330.286 -4.80805 338.516C-1.35108 347.075 4.93428 352.342 11.8482 355.964C18.4479 359.585 25.0476 363.535 32.9044 364.523C36.0471 366.498 40.1325 364.523 43.2752 366.827C43.9038 367.485 43.9038 368.144 43.9038 369.131C43.2753 370.777 42.0181 371.765 40.4467 372.094C39.8182 372.094 38.8753 372.094 38.2468 372.094C35.7326 371.765 33.8472 369.79 31.333 370.119C22.5334 371.436 15.6193 367.156 8.39114 362.877C5.87698 360.901 1.163 360.243 3.36289 354.976Z" fill="#9A001A"/>
<path fill-rule="evenodd" clip-rule="evenodd" d="M218.01 123.881C219.895 122.894 221.467 121.248 223.352 121.248C230.266 120.26 234.038 115.651 237.495 110.055C237.495 110.055 237.495 109.397 237.495 109.068C237.495 108.08 238.123 107.092 238.752 106.434C239.38 106.434 240.009 106.434 240.323 106.434C242.209 103.8 244.094 100.838 245.98 98.2041C248.18 99.1917 247.551 100.838 247.865 102.154C244.094 110.384 239.066 117.297 232.152 122.564C230.895 123.552 229.638 124.869 228.381 124.869C219.581 125.527 214.553 133.099 208.268 138.037C207.639 138.695 207.01 139.683 206.382 140.341C204.496 141.987 202.296 142.645 200.411 140.999C198.525 139.683 198.839 137.378 199.154 135.403C199.468 133.757 200.097 132.44 200.411 131.124C201.982 129.148 201.982 126.844 201.668 124.54C201.039 119.273 201.039 119.273 206.382 118.614C206.696 119.273 207.01 119.602 207.325 120.26C207.325 122.565 206.696 124.869 208.896 126.515C212.353 126.515 214.239 121.577 218.324 123.223L218.01 123.881Z" fill="#8F0215"/>
<path fill-rule="evenodd" clip-rule="evenodd" d="M192.869 367.156C195.383 369.461 198.84 370.777 196.954 375.715C196.011 377.69 200.097 376.044 200.725 378.349C200.097 379.007 199.468 380.324 198.525 380.324C189.097 381.97 180.298 385.92 170.87 387.237C173.07 382.299 172.127 377.032 171.498 372.094C171.498 372.094 171.184 372.094 170.87 372.094C171.184 367.485 175.269 370.448 177.155 369.131C178.726 368.144 180.926 367.485 182.812 368.144C186.583 369.461 190.04 368.144 193.497 368.144L192.869 367.156Z" fill="#B51354"/>
<path fill-rule="evenodd" clip-rule="evenodd" d="M6.19213 378.02C0.849537 375.715 -5.12167 375.386 -10.7785 374.069C-13.607 373.411 -15.4927 371.765 -18.3211 370.119C-15.4927 368.144 -12.6641 369.131 -10.15 368.802C-9.83569 368.802 -9.52145 368.802 -9.20718 368.802C-8.57864 368.802 -7.95018 368.473 -7.32164 368.144C-2.29332 367.815 3.04931 365.839 7.44909 370.448C9.96325 372.423 13.4202 372.752 16.2486 374.398C17.82 375.386 19.3914 375.386 21.5912 374.069C27.5624 369.46 27.8767 369.79 31.6479 376.703C32.2765 377.69 32.5907 379.007 34.162 379.336C35.4191 379.336 36.6762 379.336 37.9333 379.336C40.1332 379.336 42.6474 379.007 44.8473 378.349C45.4758 378.349 46.1043 378.349 46.7328 378.349C49.8755 380.324 53.3325 381.641 57.1037 381.312C58.3608 381.312 59.3036 381.97 60.2464 382.958C60.5607 383.616 60.875 384.604 60.875 385.262C60.875 386.25 60.5608 386.908 59.9322 387.566C56.7895 390.2 53.961 388.554 50.8183 387.566C46.1043 385.92 41.3904 384.933 36.0478 385.262C28.8196 385.591 21.5913 382.628 14.3631 382.299C11.5346 382.299 8.39186 380.982 6.82051 378.349L6.19213 378.02Z" fill="#9B031D"/>
<path fill-rule="evenodd" clip-rule="evenodd" d="M247.551 9.32152C244.409 15.5762 240.952 21.5017 233.095 20.8433C230.581 20.8433 228.695 23.1477 225.553 22.1601C225.238 18.539 222.41 15.9054 219.896 13.2718C217.696 11.2967 216.124 9.65072 212.982 10.9675C210.153 12.2843 208.582 9.65069 209.21 7.34633C211.096 -1.87112 214.239 -10.7594 220.838 -17.3433C223.667 -20.306 228.381 -19.6476 232.152 -19.6476C239.38 -19.6476 245.666 -17.0141 249.123 -9.77178C250.38 -7.13822 251.323 -4.50464 250.066 -1.87108C249.123 -0.883493 248.494 -0.883494 247.551 -1.87108C245.666 -2.85866 244.094 -4.83383 243.152 -6.809C240.952 -12.4053 236.866 -14.7097 231.209 -14.3805C230.581 -14.3805 230.267 -14.0513 229.638 -13.7221C229.009 -13.7221 228.695 -13.7221 228.067 -13.7221C227.752 -13.7221 227.124 -13.7221 226.495 -13.7221C226.181 -13.7221 225.552 -13.7221 225.238 -13.0637C224.924 -12.7345 224.61 -12.4053 224.295 -12.0761C224.295 -11.4177 223.667 -10.7593 223.038 -10.1009C222.41 -9.11336 221.467 -8.45498 220.524 -7.7966C220.21 -7.4674 219.581 -7.13823 219.267 -6.47984C218.639 -5.82145 218.324 -4.83385 218.01 -3.84627C216.439 -0.883516 212.667 2.40842 218.324 5.04198C219.896 5.70037 220.838 7.01718 222.41 8.00476C226.81 9.32154 229.009 15.9054 234.981 13.9302C235.609 13.9302 236.238 13.2719 236.866 12.9427C240.637 10.6383 241.895 7.34637 242.209 3.06684C242.837 -2.20027 243.78 -2.52948 247.866 -1.2127C247.866 2.07925 248.494 5.37117 247.237 8.33393L247.551 9.32152Z" fill="#9C0622"/>
<path fill-rule="evenodd" clip-rule="evenodd" d="M334.919 248.975C336.49 246.671 338.061 244.367 339.319 241.733C342.775 235.808 348.118 236.795 353.146 238.441C357.86 239.758 360.375 243.708 359.432 249.304C359.432 250.95 359.432 252.267 360.06 253.913C361.003 257.205 359.432 258.851 356.918 260.497C356.603 260.497 356.289 260.497 355.661 260.497C352.204 261.814 348.432 260.497 344.661 262.472C340.261 264.777 338.376 261.814 340.261 257.205L339.633 257.205C338.69 260.497 338.061 264.777 333.662 260.497C333.662 257.534 333.033 254.242 333.347 251.28C333.976 250.621 334.604 249.963 334.919 249.304L334.919 248.975Z" fill="#A1032B"/>
<path fill-rule="evenodd" clip-rule="evenodd" d="M153.899 90.9618C155.156 90.9618 156.413 90.9618 157.356 92.2786C156.728 94.5829 154.528 94.583 152.956 95.8997C147.928 99.5209 146.671 102.813 148.557 109.068C149.185 111.043 150.128 113.018 150.757 114.664C153.585 120.589 156.728 126.186 158.299 133.099C159.242 137.378 161.756 140.999 164.584 144.291C168.984 148.9 172.441 148.242 175.27 142.316C175.898 140.67 176.527 139.024 178.098 137.707C179.984 141.329 178.098 144.621 176.841 147.913C174.641 153.18 169.613 154.496 165.527 150.875C160.499 146.267 156.099 140.67 154.528 133.757C153.271 128.49 151.385 123.552 148.557 118.943C146.671 115.981 145.414 112.689 144.157 109.068C142.271 103.471 144.157 98.8625 147.3 93.9245C148.871 90.9618 151.385 90.3034 154.214 90.9618L153.899 90.9618Z" fill="#79030A"/>
<path fill-rule="evenodd" clip-rule="evenodd" d="M167.727 46.1914C166.155 37.6323 159.556 37.3031 152.956 36.9739C146.356 35.3279 142.585 42.8994 136.614 43.2286C133.471 48.4957 131.586 54.0921 133.471 60.676C135.357 66.6015 138.814 70.2226 144.156 72.8562C145.099 73.1854 146.042 74.1729 145.099 75.1605C144.471 75.8189 143.214 75.4897 142.271 75.8189C133.157 72.1977 126.871 60.6759 128.443 51.4585C128.757 49.8125 129.071 48.1665 130.643 46.8497C133.157 44.8746 134.1 41.2535 135.357 38.2907C137.557 32.036 143.528 28.0857 149.813 29.0732C151.07 29.0732 152.013 29.7317 152.642 31.0484C154.213 35.328 157.356 35.3279 161.127 34.6695C166.47 33.682 166.784 34.3404 168.984 39.6075C169.298 40.2659 169.927 40.9243 170.555 41.5827C171.498 42.8994 171.498 43.887 170.555 45.2038C170.555 45.533 170.555 46.1914 170.241 46.5206C169.298 47.8374 170.241 50.8001 167.098 49.4833C166.469 48.4957 166.47 47.5082 167.412 46.5206L167.727 46.1914Z" fill="#9A021D"/>
<path fill-rule="evenodd" clip-rule="evenodd" d="M36.0481 243.05C36.0481 245.683 36.3623 248.646 34.791 250.95C32.2768 253.913 31.0197 257.864 27.877 259.839C24.42 262.143 20.6487 264.447 16.2489 261.485C12.1634 258.851 8.39227 249.304 9.64935 244.367C11.535 235.478 17.506 232.845 28.8197 236.466C29.4483 236.795 29.7626 237.124 30.3911 237.783C32.2767 239.429 35.1052 240.087 36.3623 243.05L36.0481 243.05Z" fill="#B2124C"/>
<path fill-rule="evenodd" clip-rule="evenodd" d="M133.785 373.411C129.7 372.424 133.785 378.349 129.7 378.349C127.186 378.349 130.014 382.299 129.7 384.274C130.328 384.933 130.328 385.262 129.7 385.92C129.7 385.92 129.071 385.92 128.757 386.25C128.443 386.25 128.128 386.25 127.814 386.25C127.185 386.25 126.557 385.92 125.928 385.591C125.3 385.591 124.986 384.933 124.357 384.604C122.157 383.616 120.271 383.616 118.386 384.933C118.386 384.933 117.757 384.933 117.443 384.933C117.443 384.933 116.815 384.933 116.5 384.933C116.5 384.933 115.872 384.933 115.558 384.933C114.3 384.933 113.043 384.604 112.1 384.933C111.472 384.933 110.843 384.933 110.215 384.933C106.758 384.275 106.444 380.983 104.872 379.007C100.158 379.007 94.8157 383.287 91.9873 375.715C101.73 374.069 110.215 369.132 119.957 367.815C122.471 367.486 125.3 366.169 127.814 367.815C128.757 369.132 129.7 369.132 130.328 367.815C135.357 366.498 134.728 369.461 133.471 372.423L133.785 373.411Z" fill="#B50F50"/>
<path fill-rule="evenodd" clip-rule="evenodd" d="M50.504 387.566C53.6467 387.566 56.7895 387.566 59.6179 385.92C60.5608 384.933 61.5036 384.274 62.7606 384.274C68.1032 384.274 69.6745 381.312 69.3602 376.374C73.1315 372.423 75.6457 375.386 78.4742 378.02C80.674 380.324 80.3596 384.274 83.8166 386.579C86.0165 384.933 84.4452 379.336 89.1592 380.324C89.7878 380.324 90.4164 380.653 91.045 380.982C91.6735 380.982 91.9878 381.641 92.6163 381.97C92.6163 381.97 92.9304 382.299 93.2447 382.628C93.559 382.957 94.1876 383.287 94.5018 383.616C94.5018 383.616 94.8162 383.945 95.1304 384.274C95.759 384.603 96.3875 385.262 97.3304 385.92C97.6446 386.249 98.2731 386.908 98.5873 387.566C102.359 396.125 102.044 396.455 93.5591 396.455C91.6735 396.455 89.7879 396.784 87.9023 395.796C76.9028 392.833 65.2748 392.833 54.2753 389.541C53.0182 389.212 52.0754 388.883 51.1326 387.895L50.504 387.566Z" fill="#A4052F"/>
<path fill-rule="evenodd" clip-rule="evenodd" d="M358.803 254.242C360.06 244.037 353.46 240.416 345.918 239.429C343.089 239.099 341.518 240.416 339.318 241.733C339.318 239.429 340.261 237.454 342.146 237.124C347.489 236.137 349.375 231.857 351.26 227.578C352.517 224.615 354.089 221.652 356.917 220.006C361.003 217.043 364.46 216.714 364.774 223.298C363.203 232.845 361.317 242.391 359.746 251.938C361.003 253.913 359.746 253.913 358.174 254.242L358.803 254.242Z" fill="#A80736"/>
<path fill-rule="evenodd" clip-rule="evenodd" d="M241.895 187.416C242.209 188.074 242.838 188.404 243.152 189.062C243.152 194.329 246.609 200.584 239.695 204.205C237.809 205.851 236.238 207.497 233.41 205.851C233.724 208.155 236.552 207.168 237.181 208.814C237.181 209.472 237.495 210.13 237.181 211.118C236.552 212.435 235.295 213.422 233.724 213.422C229.952 211.447 226.495 209.472 223.667 206.509C223.039 205.522 222.41 204.205 221.782 202.888C221.467 202.23 221.153 201.901 220.524 201.242C220.21 200.584 219.896 200.255 219.582 199.596C218.953 198.279 218.639 196.963 218.639 195.646C219.896 192.354 218.639 188.404 221.153 185.441C225.238 180.503 230.267 179.186 236.238 181.49C237.495 181.49 238.752 181.49 239.381 182.807C239.381 184.453 239.381 186.099 240.952 187.416L241.895 187.416Z" fill="#B31450"/>
<path fill-rule="evenodd" clip-rule="evenodd" d="M90.7301 382.628C89.1588 382.299 86.016 380.983 86.9588 383.287C88.8445 387.896 86.9588 389.871 83.8161 391.188C81.6162 391.846 77.8451 387.237 77.8451 383.945C77.8451 380.653 76.2737 378.678 74.0738 377.032C72.8168 376.045 71.2454 376.374 69.9884 377.032C69.3598 377.691 68.7312 378.678 67.7884 379.007C65.2743 380.324 62.4458 382.299 60.8745 379.007C58.6746 374.399 62.1316 372.094 65.2743 370.119C65.9029 370.119 66.5313 370.119 67.1599 370.119C69.0455 370.119 70.9311 370.448 72.8167 369.461C74.388 370.119 74.0738 372.094 75.0166 373.082C76.588 375.057 78.7878 377.361 81.302 376.045C85.3875 374.069 88.5303 376.045 91.9873 377.032C96.0728 379.337 99.844 380.324 103.929 376.703C105.187 375.715 107.387 373.74 108.329 377.361C107.387 378.678 106.758 379.666 105.815 380.983C105.815 381.641 105.187 381.97 104.872 382.628C104.558 383.616 103.93 384.274 102.987 384.933C102.358 385.262 101.73 385.591 101.101 385.92C97.3297 386.908 94.1872 383.945 90.4159 383.945L90.7301 382.628Z" fill="#AE0B40"/>
<path fill-rule="evenodd" clip-rule="evenodd" d="M87.2739 395.138C90.7309 395.138 94.1879 394.809 97.3306 394.479C97.6449 394.479 97.9591 393.821 98.9019 393.163C96.0735 391.517 95.7591 388.554 94.8163 385.591C94.1877 383.616 95.4449 383.287 97.0162 383.287C98.2733 383.287 99.2162 384.604 100.473 384.604C102.359 385.262 103.93 386.579 105.816 386.908C107.387 387.566 108.959 388.225 110.844 388.225L111.473 388.225L111.158 387.896C110.844 387.566 110.53 387.237 110.53 386.579C110.53 385.591 110.844 384.933 111.473 384.274C113.044 383.287 114.301 382.958 115.872 384.274C116.187 384.604 116.501 384.933 116.815 384.604C117.129 384.604 117.444 384.604 117.444 384.274C120.272 383.945 123.415 382.628 126.243 384.274C126.872 384.933 127.186 385.262 127.815 385.92C128.129 386.25 128.443 386.579 128.758 386.25C129.072 386.25 129.386 386.25 129.386 385.92C129.386 385.262 129.386 384.933 129.386 384.274C132.214 384.274 134.729 384.274 134.729 388.554C134.729 390.2 135.357 392.175 135.671 394.809C132.529 392.834 130.957 387.237 126.558 390.529C127.186 392.175 130.015 392.504 128.129 395.138C127.186 394.15 126.243 394.15 125.301 395.138C124.672 395.138 124.044 395.138 123.415 394.809C122.158 394.809 121.215 394.479 120.272 394.15C110.53 395.467 101.102 397.442 91.0452 397.113C89.7881 397.113 88.5309 396.784 87.5881 395.796L87.2739 395.138Z" fill="#AE0B40"/>
<path fill-rule="evenodd" clip-rule="evenodd" d="M52.3891 166.018C54.9032 166.677 57.1032 167.664 58.3603 170.627C59.6174 173.59 57.7317 174.907 56.1604 176.553C53.3319 179.515 50.5035 181.82 53.0177 187.087C54.589 190.379 49.875 195.975 46.4181 195.317C44.2182 195.317 41.704 194.329 41.0754 191.695C40.1326 188.733 40.7612 185.441 43.2754 184.124C48.618 181.82 47.0465 178.199 46.1037 174.248C44.8466 170.298 48.3037 166.018 52.7035 166.018L52.3891 166.018Z" fill="#B01442"/>
<path fill-rule="evenodd" clip-rule="evenodd" d="M339.318 252.596C342.775 253.584 340.261 256.547 340.889 258.522C341.518 260.826 342.461 261.814 344.346 260.168C345.603 259.18 346.232 258.193 347.803 257.205C352.203 254.901 352.203 254.901 354.403 259.839C354.403 260.168 355.346 260.168 355.66 260.497C352.203 262.802 349.689 266.423 345.289 267.081C342.775 267.081 341.204 270.044 339.947 272.019C337.432 275.969 334.29 279.261 329.576 279.59C327.376 279.59 326.119 282.553 323.605 282.553C322.033 282.882 320.148 284.199 319.833 281.236C319.833 278.932 319.833 276.628 322.033 275.311C324.547 274.323 327.062 273.336 329.576 272.019C333.033 270.044 334.918 267.739 332.09 263.789C333.347 263.131 332.09 259.839 335.233 260.826C339.632 259.839 339.632 256.547 339.632 252.926L339.318 252.596Z" fill="#A70731"/>
<path fill-rule="evenodd" clip-rule="evenodd" d="M398.401 82.7321C398.401 87.3408 394.316 87.9992 392.116 89.9743C390.23 91.9495 387.087 91.2911 384.573 89.9743C383.63 89.316 383.002 88.3284 383.63 87.3408C385.83 83.3904 384.888 79.4401 385.516 75.1606C385.516 72.8562 386.773 71.2102 388.659 70.2227C389.916 69.5643 391.173 69.2351 392.116 70.2227C394.944 74.173 397.773 78.1233 398.715 82.7321L398.401 82.7321Z" fill="#B5174A"/>
<path fill-rule="evenodd" clip-rule="evenodd" d="M235.609 364.194C235.609 361.56 236.237 359.585 239.38 359.914C240.009 359.914 240.637 359.256 240.951 358.597C240.951 357.281 240.009 356.622 239.066 356.951C235.923 357.61 233.409 353.989 229.952 354.976C230.58 353.659 231.523 352.343 233.095 352.013C238.437 351.026 242.837 348.392 247.551 345.429C250.065 344.442 252.894 343.783 254.779 346.417C256.665 348.392 255.722 350.697 253.837 352.343C250.065 355.305 246.608 358.597 243.466 361.889C241.58 363.864 239.38 366.498 235.923 364.523L235.609 364.194Z" fill="#BD2667"/>
<path fill-rule="evenodd" clip-rule="evenodd" d="M257.923 257.205C253.523 255.888 251.952 252.267 251.323 247.988C250.695 244.696 251.323 242.391 253.523 240.416C255.723 238.77 257.608 240.087 259.494 241.404C260.123 242.062 260.751 242.062 261.694 241.404C262.951 240.087 262.322 238.441 262.637 237.124C266.094 244.696 271.751 250.621 274.893 258.193C272.379 261.156 269.865 261.485 267.979 257.864C265.151 251.938 262.008 251.609 258.237 256.876L257.923 257.205Z" fill="#A00426"/>
<path fill-rule="evenodd" clip-rule="evenodd" d="M30.3907 89.9743C27.248 88.3283 24.4197 88.9867 21.9056 92.937C21.277 87.3407 24.1054 85.3656 26.9338 84.0488C29.448 82.732 31.6479 81.7444 32.905 79.1109C36.362 73.8437 41.7044 71.5394 47.6755 71.2102C48.3041 72.1978 48.9327 73.1854 49.5613 74.1729C49.5613 76.1481 48.9327 78.1233 48.9327 80.4277C48.9327 85.3656 46.4186 87.3407 41.7045 86.6823C38.5618 86.3532 35.4191 86.024 32.5906 88.6575C31.6478 89.3159 30.7051 89.6451 29.7623 90.3035L30.3907 89.9743Z" fill="#A3082F"/>
<path fill-rule="evenodd" clip-rule="evenodd" d="M253.522 352.013C253.522 348.063 251.427 345.868 247.237 345.429C258.236 339.504 270.493 336.212 279.606 326.665C281.178 332.262 278.664 334.566 275.521 336.87C268.293 341.808 260.75 347.075 253.522 352.013Z" fill="#C13F62"/>
<path fill-rule="evenodd" clip-rule="evenodd" d="M28.5056 236.795C25.9914 238.112 23.7916 236.795 21.2774 236.795C12.7921 236.795 8.39235 243.708 11.8493 252.267C12.4779 253.584 13.1063 254.901 13.7349 256.547C16.8776 262.472 23.1629 263.46 27.2484 258.193C28.5055 256.547 30.3912 255.559 31.0197 253.913C31.9625 252.267 31.9625 249.963 33.5338 248.646C34.4767 249.304 34.1625 250.621 34.4768 251.609C33.8483 255.23 31.6483 258.193 29.4484 260.826C23.7915 267.41 16.5634 266.752 11.8493 259.18C7.13527 251.609 7.7637 244.367 11.5349 236.795C11.8492 236.137 12.4778 235.149 12.7921 235.149C18.1347 235.149 24.1057 231.857 28.8198 237.453L28.5056 236.795Z" fill="#AC0E3B"/>
<path fill-rule="evenodd" clip-rule="evenodd" d="M332.09 263.46C334.29 265.764 336.804 262.472 339.633 264.448C339.004 266.752 338.69 270.373 336.49 271.361C332.405 273.336 329.262 277.615 324.548 277.615C323.291 277.615 321.719 276.299 321.091 278.932C320.777 280.907 321.405 282.553 323.919 282.553C321.405 284.528 319.52 286.174 318.891 280.578C318.262 275.64 318.891 272.019 323.291 269.715C325.176 268.727 326.748 267.74 327.376 265.435C328.319 262.472 330.519 263.789 332.09 263.789L332.09 263.46Z" fill="#AE0C40"/>
<path fill-rule="evenodd" clip-rule="evenodd" d="M133.785 373.411C132.842 371.765 133.785 369.132 130.642 368.802C132.214 367.486 133.785 368.144 135.356 368.144C143.527 368.144 151.384 368.144 159.555 369.79C162.069 370.119 164.898 368.802 167.412 368.144C170.555 367.156 173.697 367.156 176.526 368.473C174.954 370.448 172.126 369.79 170.24 371.765C164.898 372.423 159.555 373.082 154.213 373.411C152.641 374.399 151.384 374.399 149.813 373.411C144.47 372.753 139.128 372.423 133.471 373.411L133.785 373.411Z" fill="#C03B67"/>
<path fill-rule="evenodd" clip-rule="evenodd" d="M240.323 69.235C240.323 70.2226 240.322 71.5394 240.008 72.5269C235.294 73.1853 236.237 68.5766 234.351 66.2723C230.266 65.6139 230.266 58.0424 224.609 59.6884C223.666 59.6884 222.723 59.6884 221.781 59.6884C221.781 59.6884 221.152 59.6884 220.838 59.6884C218.952 59.6884 218.009 58.3716 218.009 56.7256C218.638 56.0672 219.266 55.4088 219.266 54.7504C224.609 47.5082 229.637 47.5081 234.666 54.4212C237.808 58.7008 239.38 63.3095 240.637 68.2474C240.637 68.2474 240.637 68.9058 240.637 69.235L240.323 69.235Z" fill="#8D0212"/>
<path fill-rule="evenodd" clip-rule="evenodd" d="M297.206 258.522C296.578 258.522 295.949 258.522 295.006 258.522C290.921 260.497 286.835 261.156 282.436 259.839C283.064 259.18 283.693 258.193 284.321 257.864C287.464 256.876 286.521 254.572 285.578 252.596C283.693 248.317 280.236 244.696 284.007 239.429C286.835 235.807 289.035 234.162 292.492 238.112C293.121 239.099 293.749 240.087 294.378 241.075C295.321 243.708 296.264 246.671 296.264 249.634C294.692 251.938 291.864 252.926 290.921 255.888C292.178 258.522 295.321 256.218 296.578 258.522L297.206 258.522Z" fill="#A6062E"/>
<path fill-rule="evenodd" clip-rule="evenodd" d="M203.239 64.9555C206.696 60.676 209.524 59.3592 213.61 60.676C214.552 61.0052 215.495 61.6636 215.181 62.6512C215.181 63.9679 214.238 64.6263 213.295 64.2971C208.581 62.9804 206.696 66.6015 205.124 69.8934C203.239 73.8438 201.039 77.4649 196.325 78.1233C195.696 78.1233 195.068 79.4401 194.439 80.4277C194.439 80.4277 194.439 81.0861 194.439 81.4153C194.125 82.0736 193.496 82.4029 192.868 82.4029C192.553 82.4029 192.239 82.4029 191.925 82.4029C190.668 81.7445 191.297 79.7693 190.039 79.1109C189.411 76.1482 191.297 74.5022 193.182 73.8438C197.582 72.1978 200.096 67.9183 203.553 64.9555L203.239 64.9555Z" fill="#91030E"/>
<path fill-rule="evenodd" clip-rule="evenodd" d="M43.2759 368.802L43.2759 367.156C42.3331 363.206 44.8472 361.889 47.6756 360.573C53.6467 358.927 59.618 359.585 65.2748 361.889C67.789 362.877 69.9889 364.194 71.5602 366.498C72.503 368.473 72.1888 370.119 70.6175 371.107C69.0461 372.094 67.789 371.107 66.8462 369.79C61.5036 368.144 56.4752 368.144 51.4469 369.79C50.8183 369.79 50.1898 370.119 49.2469 370.119C47.0471 370.119 44.533 370.119 43.2759 367.815L43.2759 368.802Z" fill="#9D001C"/>
<path fill-rule="evenodd" clip-rule="evenodd" d="M397.144 131.782C394.315 132.44 390.858 128.161 389.287 133.428C388.973 134.745 387.087 134.416 386.144 133.428C384.573 132.44 383.945 130.794 383.63 128.819C383.316 124.211 385.202 120.26 387.402 116.639C388.659 114.664 392.116 114.993 392.116 116.968C392.116 122.565 397.458 125.527 397.144 131.453L397.144 131.782Z" fill="#B3134C"/>
<path fill-rule="evenodd" clip-rule="evenodd" d="M365.088 223.298C364.146 223.298 363.203 223.957 362.26 223.957C360.689 223.627 361.632 222.64 362.26 221.981C363.203 220.665 362.26 220.335 361.317 220.006C359.746 220.006 358.489 220.006 356.917 220.006C356.917 218.689 356.917 217.373 358.175 216.714C360.374 215.398 361.003 213.422 361.003 210.789C362.26 208.155 363.203 205.851 364.46 203.217C367.288 203.217 369.174 205.522 370.431 207.826C372.317 206.838 373.259 207.826 373.574 209.801C372.631 215.727 370.431 220.665 365.088 223.627L365.088 223.298Z" fill="#AF0C41"/>
<path fill-rule="evenodd" clip-rule="evenodd" d="M167.727 49.4832C168.67 48.4957 169.298 47.5081 170.241 46.5205C170.555 49.1541 171.498 51.4584 172.755 53.7628C175.584 57.7131 175.898 60.3467 172.755 65.6138C169.298 70.5517 168.041 78.1232 169.927 85.3655C168.984 86.3531 167.727 86.6823 166.47 85.6947C165.841 82.0735 165.527 78.4524 164.899 74.8312C162.07 69.5641 166.156 65.943 167.727 61.6634C168.67 60.6759 169.613 60.0175 170.241 58.7007C170.241 58.7007 170.241 58.0423 170.241 57.7131C169.298 55.7379 168.356 53.4336 167.413 51.4584C166.784 50.8 167.098 50.4708 167.413 49.8125L167.727 49.4832Z" fill="#A10726"/>
<path fill-rule="evenodd" clip-rule="evenodd" d="M268.922 155.155C268.922 152.192 269.551 149.229 269.865 145.937C270.179 143.633 272.065 143.304 273.636 143.962C276.779 145.279 280.864 153.838 279.922 157.459C278.979 160.422 276.465 162.068 273.636 161.409C270.179 160.751 268.294 158.118 268.922 155.155Z" fill="#9D0A24"/>
<path fill-rule="evenodd" clip-rule="evenodd" d="M257.923 257.205C257.923 256.547 257.923 256.218 257.923 255.559C258.551 252.597 258.237 248.317 261.379 247.659C264.208 247 264.836 251.609 266.722 253.255C269.236 255.23 268.922 260.826 274.265 258.522C274.893 260.168 275.207 261.485 275.836 263.131C273.95 264.777 273.322 268.727 269.551 268.069C269.236 267.41 268.608 267.081 267.979 266.423C265.779 266.423 264.836 264.448 263.579 263.131C262.322 260.168 261.065 257.534 257.608 256.876L257.923 257.205Z" fill="#A70633"/>
<path fill-rule="evenodd" clip-rule="evenodd" d="M87.9028 50.8C87.9028 48.8248 86.96 47.508 85.0743 46.5204C80.046 43.5577 69.675 46.1912 66.5323 51.4584C64.3324 55.0795 64.3324 58.7007 66.5323 62.3218C67.7894 63.9678 70.6178 66.2721 66.5323 68.2473C66.5323 67.5889 65.9038 67.2597 65.5896 66.6013C64.0182 63.3093 61.8184 60.0174 61.5041 56.0671C61.5041 48.8248 66.8467 44.8744 71.5608 43.5577C76.9034 41.9117 84.1316 39.2781 88.8456 46.1912C89.7884 47.508 89.4741 49.154 89.1598 50.8C88.5313 51.4584 87.9028 51.4584 87.2743 50.8L87.9028 50.8Z" fill="#9D091E"/>
<path fill-rule="evenodd" clip-rule="evenodd" d="M292.178 240.087C289.664 236.466 287.778 238.112 285.892 240.746C284.321 243.05 284.321 245.683 285.892 247.988C286.835 249.634 287.464 251.28 285.892 252.926C285.264 251.609 283.693 252.267 282.75 251.28C278.036 246.342 278.35 246.342 281.493 240.746C284.007 236.466 285.892 232.186 291.864 234.491C292.178 234.82 292.806 235.478 293.121 235.808C293.121 236.137 293.435 236.795 293.435 237.124C293.749 237.783 294.378 238.112 294.692 238.77C295.635 239.429 295.321 241.075 296.263 241.733C296.263 242.392 296.892 243.05 297.52 243.379C298.463 245.025 298.463 246.671 297.52 248.317C296.892 248.646 296.263 249.305 295.949 249.963C293.749 247.659 292.806 245.025 292.806 242.062C292.492 241.404 291.864 241.075 291.549 240.416L292.178 240.087Z" fill="#9B0814"/>
<path fill-rule="evenodd" clip-rule="evenodd" d="M63.0747 154.167C63.0747 156.142 56.7894 161.41 54.9038 161.739C53.0182 161.739 50.5038 157.788 50.8181 154.496C50.8181 151.534 54.5894 147.583 57.7321 147.254C60.2463 147.254 63.3889 150.875 63.3889 154.167L63.0747 154.167Z" fill="#AF1345"/>
<path fill-rule="evenodd" clip-rule="evenodd" d="M237.181 210.789C237.181 210.13 237.181 209.801 237.181 209.143C235.924 206.509 237.81 204.863 238.752 202.888C238.124 201.901 236.867 201.242 236.867 199.925C237.495 198.609 238.438 198.938 239.381 199.267C242.523 199.925 243.466 198.279 242.838 195.317C242.524 193.012 241.266 191.037 242.838 189.062C244.723 193.342 246.295 197.621 245.666 202.559C245.038 207.168 243.466 210.789 239.067 212.435C238.438 213.093 237.81 213.093 237.181 212.435C236.552 211.776 236.552 211.118 237.181 210.46L237.181 210.789Z" fill="#AF1147"/>
<path fill-rule="evenodd" clip-rule="evenodd" d="M170.555 61.6635C167.727 65.2847 165.841 69.5642 164.584 74.1729C163.641 75.1605 162.699 76.1481 161.756 77.1357C161.756 75.1606 161.756 73.1854 158.927 73.8438C155.785 74.173 153.27 73.1853 150.756 71.5394C152.328 69.235 153.585 70.881 154.842 70.881C158.927 70.881 162.07 69.5642 163.013 64.9555C163.956 60.6759 166.47 58.0424 170.241 57.384C171.184 59.03 171.184 60.3468 170.241 61.9927L170.555 61.6635Z" fill="#AF0E46"/>
<path fill-rule="evenodd" clip-rule="evenodd" d="M188.469 96.5583C186.583 99.8502 187.526 103.801 185.64 107.092C185.012 107.092 184.383 108.08 183.755 108.409C183.755 108.409 183.126 108.738 182.812 108.409C181.241 109.068 179.041 109.726 178.098 108.409C176.841 105.776 180.927 104.788 180.612 102.155C180.927 99.8502 179.669 98.5334 178.412 96.8875C176.527 94.5831 175.898 91.9495 179.041 89.9744C179.669 91.2911 180.612 91.6203 181.869 90.962C184.698 91.9495 189.726 90.3036 188.155 96.8875L188.469 96.5583Z" fill="#A10528"/>
<path fill-rule="evenodd" clip-rule="evenodd" d="M278.978 180.174C275.836 180.174 272.379 175.894 272.693 172.931C272.693 169.969 275.836 167.664 278.978 167.994C281.807 167.994 284.007 170.627 283.692 173.59C283.378 177.211 280.864 180.503 278.978 180.503L278.978 180.174Z" fill="#990B1C"/>
<path fill-rule="evenodd" clip-rule="evenodd" d="M264.208 101.825C261.065 101.825 259.179 99.1917 259.179 95.5706C259.179 92.6078 260.436 90.6327 263.265 90.3035C266.093 90.3035 268.922 93.2662 268.922 96.2289C268.922 99.1917 266.722 101.825 263.893 101.825L264.208 101.825Z" fill="#A00D21"/>
<path fill-rule="evenodd" clip-rule="evenodd" d="M237.18 181.161C235.923 182.149 236.237 186.758 233.409 182.478C232.152 180.503 230.58 180.832 229.009 181.82C224.924 184.124 220.838 186.758 221.152 192.683C221.152 194 221.152 195.317 221.152 196.633C222.095 197.621 221.781 198.938 222.409 199.925C223.038 200.584 223.352 200.913 223.981 201.571C224.924 202.23 225.238 203.547 225.552 204.863C224.924 206.18 224.295 207.168 222.724 206.509C221.781 205.851 222.095 204.205 221.152 203.547C220.838 202.888 220.209 202.23 219.581 201.901C218.324 199.925 219.267 197.95 218.952 195.975C218.952 194.988 218.952 194.329 219.581 193.671C219.581 186.758 222.409 181.82 228.066 179.186C231.838 177.54 234.666 179.186 237.494 181.491L237.18 181.161Z" fill="#AB0E36"/>
<path fill-rule="evenodd" clip-rule="evenodd" d="M33.2191 88.3283C32.9049 83.3904 37.3046 85.0363 39.5045 84.0488C41.7044 83.0612 44.2186 86.024 46.4185 83.7196C48.3041 81.7444 47.3613 78.7816 48.3041 76.4773C48.6183 75.4897 49.2469 74.8313 49.8754 73.8437C50.1897 73.8437 51.1326 74.1729 51.1326 74.5021C50.504 78.7817 52.7038 83.7196 47.6755 86.6823C47.0469 87.6699 45.79 87.3407 44.8472 87.6699C44.2186 87.6699 43.5901 87.6699 43.2758 87.6699C42.9615 87.6699 42.3329 87.6699 42.0187 87.6699C40.4473 87.9991 38.8761 88.3283 37.619 87.6699C36.6762 87.0115 35.7333 87.0115 34.7905 87.6699C34.4762 87.6699 33.8476 87.9991 33.5333 87.6699L33.2191 88.3283Z" fill="#9B0A1B"/>
<path fill-rule="evenodd" clip-rule="evenodd" d="M194.439 80.4277C198.525 84.0489 199.153 87.0116 196.325 90.6327C195.382 91.9495 193.496 92.9371 192.868 94.5831C192.554 94.5831 191.925 94.5831 191.611 94.5831C189.097 93.2663 187.84 90.9619 187.525 87.9992C188.154 84.7072 190.354 83.3905 192.868 82.4029C193.496 81.7445 193.811 81.4153 194.439 80.7569L194.439 80.4277Z" fill="#A10528"/>
<path fill-rule="evenodd" clip-rule="evenodd" d="M279.607 213.093C279.607 210.789 281.178 208.813 283.692 208.813C286.521 208.813 289.035 210.459 289.035 212.764C289.035 215.068 286.521 217.373 284.007 217.373C281.807 217.373 279.607 215.397 279.293 213.093L279.607 213.093Z" fill="#AB1138"/>
<path fill-rule="evenodd" clip-rule="evenodd" d="M222.409 205.851C223.352 205.192 224.295 204.863 225.238 204.205C227.752 207.497 231.209 209.143 234.037 212.106C234.98 212.106 235.923 212.106 237.18 212.106C237.809 212.106 238.751 212.106 239.38 212.106C239.066 213.752 238.437 215.397 237.494 217.043C236.552 218.031 234.98 218.36 234.352 217.373C231.837 211.776 224.924 211.447 222.409 205.851Z" fill="#AB1133"/>
<path fill-rule="evenodd" clip-rule="evenodd" d="M47.9903 70.8808C42.9619 73.1852 38.5621 76.8064 33.2195 78.7815C32.2767 78.1231 31.9624 77.4647 33.2195 76.8063C37.9336 70.5516 42.3333 68.9057 48.3044 70.8808L47.9903 70.8808Z" fill="#9D0B19"/>
<path fill-rule="evenodd" clip-rule="evenodd" d="M87.9019 50.8001C88.5304 50.8001 88.8447 50.8001 89.4732 50.8001C90.1018 50.1418 90.1018 49.1541 91.0446 48.825C94.1873 50.8001 89.4732 53.1045 91.0446 55.0796C89.7875 55.0796 88.5303 54.4213 88.2161 56.0672C88.2161 58.0424 89.1589 60.0176 88.2161 61.9927C87.5875 63.3095 87.5874 65.2847 85.3876 63.9679C83.8162 63.3095 81.9306 61.9927 83.8162 60.0176C86.3304 57.384 86.0161 53.4337 87.5875 50.4709L87.9019 50.8001Z" fill="#AA103B"/>
<path fill-rule="evenodd" clip-rule="evenodd" d="M385.202 165.689C380.802 164.702 378.602 167.664 376.088 170.298C374.202 167.993 376.716 165.689 376.088 163.056C376.088 161.08 377.031 159.764 378.916 159.434C380.802 159.105 382.059 160.093 383.002 161.739C383.63 163.056 384.259 164.372 384.887 165.689L385.202 165.689Z" fill="#C1434F"/>
<path fill-rule="evenodd" clip-rule="evenodd" d="M254.151 18.2097C254.151 21.5017 252.894 23.1477 250.066 22.8185C247.552 22.8185 247.237 20.5141 247.237 18.2097C247.237 15.5762 248.495 13.601 251.323 13.9302C253.837 13.9302 254.151 16.5638 254.151 17.8806L254.151 18.2097Z" fill="#9E1022"/>
<path fill-rule="evenodd" clip-rule="evenodd" d="M192.868 81.7445C191.297 83.7196 190.04 86.024 188.468 87.9992L188.468 88.6576C188.154 89.316 187.526 89.9743 186.897 90.6327C186.268 90.6327 185.954 90.9619 185.326 91.2911C184.697 91.2911 184.383 91.2911 183.754 91.2911C183.754 91.2911 183.126 91.2911 182.811 91.2911C182.183 92.2787 181.24 92.9371 180.612 93.9247C179.669 92.6079 180.297 90.9619 179.983 89.6451C180.612 89.3159 180.926 88.6575 181.554 87.9991C182.183 87.67 182.497 87.0116 183.126 86.6824C186.583 85.0364 189.725 83.3905 190.04 78.7817C191.297 79.7693 192.24 80.7569 193.182 81.7445L192.868 81.7445Z" fill="#93031D"/>
<path fill-rule="evenodd" clip-rule="evenodd" d="M47.676 360.572C46.1047 362.877 44.8477 364.852 43.2764 367.156C39.5051 366.827 36.0482 366.169 32.9055 363.864C36.991 364.194 40.4479 363.864 43.5906 360.902C44.8476 359.914 46.1047 359.585 47.676 360.243L47.676 360.572Z" fill="#A4052F"/>
<path fill-rule="evenodd" clip-rule="evenodd" d="M188.469 87.9991C191.926 88.6575 189.411 92.6078 191.611 94.2538C190.669 94.9122 189.726 95.5706 188.783 96.229C188.469 94.583 188.154 92.6079 185.64 93.5954C182.497 95.2414 182.812 92.937 182.497 90.9619C183.44 89.9743 184.697 90.3035 185.326 89.3159C185.954 88.3283 187.526 88.6575 188.154 87.6699L188.469 87.9991Z" fill="#AE1145"/>
<path fill-rule="evenodd" clip-rule="evenodd" d="M358.802 254.242C359.431 253.584 359.745 252.926 360.374 251.938C362.888 253.584 364.145 255.559 362.574 258.851C361.316 261.155 359.431 261.814 357.231 260.497C357.86 258.522 358.488 256.547 359.117 254.572L358.802 254.242Z" fill="#C0496B"/>
<path fill-rule="evenodd" clip-rule="evenodd" d="M180.925 101.825C181.554 103.471 184.382 104.459 180.925 106.434C179.668 107.092 179.668 107.751 182.497 108.409C181.868 108.738 181.24 109.397 180.611 109.726C178.726 110.384 177.154 110.055 176.211 108.409C175.269 106.763 176.526 105.446 177.469 104.459C178.411 103.471 179.354 102.813 180.297 102.154L180.925 101.825Z" fill="#AF0D39"/>
<path fill-rule="evenodd" clip-rule="evenodd" d="M334.918 260.168C333.975 261.156 333.032 262.143 332.09 263.131C333.347 259.18 331.147 254.572 333.347 250.621C334.918 253.584 334.918 256.876 334.918 259.839L334.918 260.168Z" fill="#AE0C40"/>
<path fill-rule="evenodd" clip-rule="evenodd" d="M251.323 27.7566C252.58 27.7566 253.523 28.7441 253.523 30.3901C253.523 32.0361 252.58 33.3529 250.694 33.3529C249.123 33.3529 247.866 32.3653 248.18 30.3901C248.18 28.7441 249.437 27.7566 251.323 27.7566Z" fill="#AB2819"/>
<path fill-rule="evenodd" clip-rule="evenodd" d="M361.317 210.459C362.26 210.459 363.517 209.472 363.832 210.459C364.46 213.093 361.946 215.727 358.489 216.056C358.489 213.751 358.803 211.447 361.317 210.13L361.317 210.459Z" fill="#A80736"/>
<path fill-rule="evenodd" clip-rule="evenodd" d="M166.47 85.0365C167.727 85.0365 168.669 85.0365 169.926 84.7073C170.869 85.3657 171.184 86.3533 171.184 87.6701C169.298 88.9868 167.412 93.2664 164.898 88.3284C165.527 87.67 165.841 87.0116 166.155 86.3532L166.155 85.6949L166.155 85.3657L166.47 85.0365Z" fill="#790709"/>
<path fill-rule="evenodd" clip-rule="evenodd" d="M67.1603 370.448C70.6173 371.765 71.2459 369.79 71.5602 366.827C71.8744 367.486 72.5029 368.144 72.8171 368.802C72.8171 370.448 72.8173 372.423 70.6174 373.082C68.7318 373.74 67.4747 372.423 66.8461 370.448L67.1603 370.448Z" fill="#A4052F"/>
<path fill-rule="evenodd" clip-rule="evenodd" d="M247.551 -1.87109C248.494 -1.87109 249.122 -1.87109 250.065 -1.87109C248.179 1.42085 250.065 6.02956 247.551 9.32151C247.551 5.70037 247.551 2.07921 247.551 -1.54193L247.551 -1.87109Z" fill="#A80939"/>
<path fill-rule="evenodd" clip-rule="evenodd" d="M36.0469 243.05C33.2185 242.391 31.6471 240.087 30.0757 237.783C33.2184 237.783 36.6755 237.783 36.0469 243.05Z" fill="#AC0E3B"/>
<path fill-rule="evenodd" clip-rule="evenodd" d="M356.289 13.6011C359.117 13.6011 361.945 13.6011 364.774 13.6011C361.945 16.5638 358.803 16.5638 356.289 13.6011Z" fill="#9B031F"/>
<path fill-rule="evenodd" clip-rule="evenodd" d="M227.123 30.3899C226.495 30.3899 225.866 30.3899 225.552 29.4023C225.552 28.744 225.552 27.7564 226.181 27.4272C227.123 27.098 228.066 27.4272 228.066 28.4148C228.066 29.0731 228.066 29.7315 226.809 30.0607L227.123 30.3899Z" fill="#B24F1D"/>
<path fill-rule="evenodd" clip-rule="evenodd" d="M32.9045 76.8064C32.9045 77.4648 32.9045 78.1232 32.9045 78.7816C30.3904 78.7816 27.5618 79.44 25.6762 77.1356C28.1903 77.4648 30.3904 77.794 32.9045 76.8064Z" fill="#A3082F"/>
<path fill-rule="evenodd" clip-rule="evenodd" d="M241.895 187.416C240.009 186.428 238.124 185.111 240.324 182.807C241.895 184.124 241.895 185.77 241.895 187.416Z" fill="#AB0E36"/>
<path fill-rule="evenodd" clip-rule="evenodd" d="M219.582 194.988C219.582 196.963 219.582 199.267 219.582 201.242C218.01 199.267 218.01 197.292 218.639 194.988C218.639 194.658 218.953 194.329 219.268 194.658C219.268 194.658 219.582 194.658 219.582 194.988Z" fill="#AB1133"/>
<path fill-rule="evenodd" clip-rule="evenodd" d="M130.642 368.473C130.642 369.461 130.642 370.777 129.385 370.777C128.128 370.777 128.128 369.461 128.128 368.473C129.071 368.473 130.014 368.473 130.642 368.473Z" fill="#C03B67"/>
<path fill-rule="evenodd" clip-rule="evenodd" d="M90.731 49.1541C90.1024 49.8125 89.7881 50.4708 89.1596 51.1292C89.1596 49.4832 89.1596 47.8373 89.1596 46.5205C90.4167 47.1789 90.4167 48.1665 90.731 49.4832L90.731 49.1541Z" fill="#A50834"/>
<path fill-rule="evenodd" clip-rule="evenodd" d="M170.87 45.2036C170.87 43.8869 170.87 42.8993 170.87 41.5825C174.641 42.5701 171.813 43.8869 170.87 45.2036Z" fill="#A10726"/>
<path fill-rule="evenodd" clip-rule="evenodd" d="M298.148 247.988C298.148 246.342 298.148 244.696 298.148 243.05C299.405 244.696 300.034 246.342 298.148 247.988Z" fill="#9B0818"/>
<path fill-rule="evenodd" clip-rule="evenodd" d="M220.839 202.888C221.781 203.547 222.41 204.534 222.41 205.851C221.153 205.193 221.153 203.876 220.839 202.888Z" fill="#AB1133"/>
<path fill-rule="evenodd" clip-rule="evenodd" d="M296.578 241.733C295.635 241.075 295.007 240.087 295.007 238.77C296.264 239.429 296.578 240.416 296.578 241.733Z" fill="#9B0818"/>
<path fill-rule="evenodd" clip-rule="evenodd" d="M283.064 250.95C284.321 250.95 285.264 251.609 286.207 252.596C284.95 252.596 284.007 251.609 283.064 250.95Z" fill="#A6062E"/>
<path fill-rule="evenodd" clip-rule="evenodd" d="M34.4766 87.999C35.4194 87.0114 36.3621 87.0114 37.3049 87.999C36.3621 87.999 35.4194 87.999 34.4766 87.999Z" fill="#A3082F"/>
<path fill-rule="evenodd" clip-rule="evenodd" d="M44.8477 87.67C45.7905 87.3408 46.7332 87.0116 47.676 86.6824C47.0475 87.67 46.1048 87.9992 44.8477 87.67Z" fill="#A3082F"/>
<path fill-rule="evenodd" clip-rule="evenodd" d="M119.958 393.821C121.215 393.821 122.158 393.821 123.101 394.479C122.158 394.479 120.901 393.821 119.958 393.821Z" fill="#B10D4B"/>
<path fill-rule="evenodd" clip-rule="evenodd" d="M124.986 394.809C125.929 393.821 126.871 393.821 127.814 394.809C126.871 394.809 125.929 394.809 124.986 394.809Z" fill="#B10D4B"/>
<path fill-rule="evenodd" clip-rule="evenodd" d="M182.497 86.6824C181.869 87.0116 181.555 87.6699 180.926 87.9991C180.926 87.0115 181.555 86.6824 182.497 86.6824Z" fill="#A10528"/>
<path fill-rule="evenodd" clip-rule="evenodd" d="M183.754 108.08C184.383 107.751 185.011 107.092 185.64 106.763C185.325 107.422 184.697 108.08 183.754 108.08Z" fill="#AF0D39"/>
<path fill-rule="evenodd" clip-rule="evenodd" d="M240.323 69.2349C240.323 68.9057 240.323 68.5765 240.323 68.2473C240.637 68.2473 240.951 68.5765 240.951 69.2349L240.323 69.2349Z" fill="#BB4C65"/>
<path fill-rule="evenodd" clip-rule="evenodd" d="M243.152 78.7816C242.523 78.4524 241.895 77.794 242.209 76.8064C242.523 77.4648 242.838 78.1232 243.152 78.7816Z" fill="#BB4C65"/>
<path fill-rule="evenodd" clip-rule="evenodd" d="M244.409 80.0984C243.78 80.0984 243.152 79.7692 243.152 79.1108C243.466 79.44 244.094 79.7692 244.409 80.0984Z" fill="#BB4C65"/>
<path fill-rule="evenodd" clip-rule="evenodd" d="M219.582 194.987C219.268 194.987 218.953 194.987 218.639 194.987C218.953 194.329 219.268 193.671 219.582 193.341C219.582 194 219.582 194.658 219.582 194.987Z" fill="#B31450"/>
<path fill-rule="evenodd" clip-rule="evenodd" d="M219.267 201.242C219.896 201.901 220.21 202.23 220.839 202.888C219.896 202.888 219.582 202.23 219.267 201.242Z" fill="#AB1133"/>
<path fill-rule="evenodd" clip-rule="evenodd" d="M65.9027 66.6016C66.217 67.26 66.5311 67.5891 67.1597 68.2475C66.2169 68.2475 65.9027 67.5891 65.9027 66.6016Z" fill="#A50834"/>
<path fill-rule="evenodd" clip-rule="evenodd" d="M28.5051 92.937C28.8193 92.2786 29.4479 91.9494 29.7622 91.291C29.7622 92.2786 29.4479 92.6078 28.5051 92.937Z" fill="#A3082F"/>
<path fill-rule="evenodd" clip-rule="evenodd" d="M42.0182 87.9991C42.3325 87.9991 42.6467 87.9991 42.961 87.6699C42.961 87.6699 42.9611 87.6699 43.2754 87.6699C42.9611 87.6699 42.3325 87.6699 42.0182 87.6699L42.0182 87.9991Z" fill="#A3082F"/>
<path fill-rule="evenodd" clip-rule="evenodd" d="M334.918 248.975C334.289 249.634 333.975 250.292 333.347 250.95C333.347 249.963 333.975 249.305 334.918 248.975Z" fill="#AE0C40"/>
<path fill-rule="evenodd" clip-rule="evenodd" d="M293.12 235.478C292.806 235.149 292.492 234.491 291.863 234.162C292.492 234.162 293.12 234.82 293.12 235.478Z" fill="#A6062E"/>
<path fill-rule="evenodd" clip-rule="evenodd" d="M296.578 249.634C297.206 248.975 297.52 248.646 298.149 247.988C298.149 248.975 297.52 249.634 296.578 249.634Z" fill="#9B0818"/>
<path fill-rule="evenodd" clip-rule="evenodd" d="M298.149 243.05C297.52 242.391 297.206 242.062 296.578 241.404C297.52 241.404 297.835 242.062 298.149 243.05Z" fill="#9B0818"/>
<path fill-rule="evenodd" clip-rule="evenodd" d="M-7.00761 356.293C-6.0648 355.305 -5.12199 354.318 -3.86491 353.33C-1.03648 351.355 0.849105 354.976 3.36326 354.976C3.9918 358.597 7.76312 358.597 9.33447 360.901C9.33447 360.901 9.33436 361.56 9.02009 361.889C5.56312 364.193 8.70589 368.144 7.13454 371.107C7.13454 371.107 6.50596 371.436 6.50596 371.765C3.9918 369.79 1.79191 368.473 -1.35079 370.119C-3.55068 371.107 -6.06488 371.107 -8.26477 370.119C-8.89331 369.79 -9.20758 369.131 -9.83612 368.473C-9.83612 366.827 -9.83612 365.51 -9.83612 363.864C-8.89331 362.547 -8.26469 361.231 -7.00761 360.901C-6.0648 359.914 -6.0648 358.926 -7.00761 357.939C-7.63615 357.28 -7.63615 356.951 -7.00761 356.293Z" fill="#A4052F"/>
<path fill-rule="evenodd" clip-rule="evenodd" d="M222.41 57.0547C229.324 54.7503 230.581 55.4087 233.095 61.9926C233.723 63.3094 234.038 64.9554 234.352 66.2722C234.352 68.9057 234.352 71.2101 230.581 72.1977C227.752 72.8561 227.124 66.6014 223.981 71.2101C222.41 73.1853 219.896 68.2473 216.124 66.6013C219.896 65.2846 223.353 64.6262 220.838 60.0174C221.781 59.359 221.467 57.7131 222.41 57.0547Z" fill="#9D052A"/>
<path fill-rule="evenodd" clip-rule="evenodd" d="M237.18 74.1729C238.123 75.8188 238.751 77.4648 240.008 78.7816C245.351 84.7071 242.208 90.6326 240.008 96.5581C238.751 99.8501 236.551 98.5333 234.666 97.2165C234.666 94.2537 234.037 91.291 235.923 88.6575C236.866 87.0115 236.551 84.7071 235.294 83.0611C233.409 79.7692 234.037 76.9162 237.18 74.5021L237.18 74.1729Z" fill="#BB4C65"/>
<path fill-rule="evenodd" clip-rule="evenodd" d="M376.402 1.42078C375.145 4.05434 372.945 4.71271 370.431 4.38351C371.373 -0.554409 372.002 -0.883584 376.402 1.42078Z" fill="#98102C"/>
<path fill-rule="evenodd" clip-rule="evenodd" d="M148.556 43.2286C149.813 42.8994 152.013 41.2535 152.013 43.2286C152.013 49.4833 154.527 47.179 157.041 44.8746C157.041 44.8746 157.984 44.8746 158.927 44.8746C157.356 50.1417 160.498 55.4088 158.613 61.0051C157.041 65.6139 154.213 67.5891 149.813 65.6139C149.499 65.6139 148.556 64.9555 148.87 64.9555C150.756 59.6883 146.356 59.3592 144.156 57.384C142.585 56.0672 143.528 54.0921 144.785 52.4461C146.671 49.4834 148.556 46.5206 149.185 42.8994L148.556 43.2286Z" fill="#A10430"/>
<path fill-rule="evenodd" clip-rule="evenodd" d="M136.614 43.2285C137.871 41.2534 139.442 39.9366 141.328 38.2906C146.67 33.0235 146.67 33.0235 152.956 36.9738C152.956 40.2657 148.556 39.9366 148.556 43.2285C146.356 43.2285 144.785 45.2037 143.213 46.5205C138.499 50.4708 137.871 50.1416 136.928 43.2285L136.614 43.2285Z" fill="#AB0A3F"/>
<path fill-rule="evenodd" clip-rule="evenodd" d="M167.727 49.4834C167.727 50.1418 167.727 50.471 167.727 51.1294C165.841 51.1294 162.699 53.4338 162.699 49.4834C162.699 46.5207 164.584 45.2039 167.727 46.5207C167.727 47.5083 167.727 48.4958 167.727 49.4834Z" fill="#AF0E48"/>
<path fill-rule="evenodd" clip-rule="evenodd" d="M218.01 123.881C215.81 125.857 213.924 127.832 211.724 129.807C209.839 131.453 208.267 132.441 206.067 130.136C205.124 129.149 205.439 127.503 205.439 126.186C205.439 124.54 207.01 123.223 206.067 121.577C206.067 121.577 206.067 120.919 206.067 120.59C206.067 119.931 206.067 119.602 206.067 118.944C208.267 118.285 208.581 115.322 211.41 114.006C211.41 118.944 215.495 120.589 218.01 123.552L218.01 123.881Z" fill="#A40833"/>
<path fill-rule="evenodd" clip-rule="evenodd" d="M240.009 106.763C239.695 106.763 239.067 106.763 238.752 106.763C237.81 107.422 238.124 109.068 237.181 109.726C236.552 109.726 235.61 109.726 235.295 109.068C234.038 107.751 231.838 106.763 232.467 104.13C232.781 103.142 234.038 103.142 234.981 103.142C237.495 103.142 240.009 103.142 240.324 106.763L240.009 106.763Z" fill="#A10A33"/>
<path fill-rule="evenodd" clip-rule="evenodd" d="M208.268 111.372L208.582 111.043L208.582 111.372L208.268 111.372Z" fill="#93031D"/>
<path fill-rule="evenodd" clip-rule="evenodd" d="M149.813 373.411C151.384 373.411 152.955 373.411 154.212 373.411C153.584 374.399 152.327 375.057 152.327 377.361C157.984 374.399 162.069 377.032 165.526 381.641C165.526 382.628 164.583 383.616 163.955 384.274C161.755 386.908 159.869 386.908 157.355 384.274C153.27 379.995 151.384 380.324 149.813 385.92C148.556 389.871 145.099 389.871 142.27 390.858C141.327 391.187 140.699 390.2 140.385 388.883C140.385 388.225 140.385 387.237 141.327 386.908C145.727 386.25 146.67 383.945 146.356 379.336C146.356 377.361 149.813 376.045 150.441 373.082L149.813 373.411Z" fill="#B61358"/>
<path fill-rule="evenodd" clip-rule="evenodd" d="M387.088 25.7813C385.831 20.5142 381.117 16.8931 380.174 11.6259C380.174 9.97997 378.602 8.66322 380.802 8.00484C383.002 7.34645 385.831 6.68806 386.459 9.65081C387.088 14.9179 389.602 20.185 387.402 25.7813L387.088 25.7813Z" fill="#A50733"/>
<path fill-rule="evenodd" clip-rule="evenodd" d="M257.922 257.205C259.18 257.205 260.122 256.547 260.751 255.23C260.751 254.242 260.751 253.255 262.322 252.596C265.779 255.559 263.894 259.839 264.208 263.46C261.694 261.814 259.808 259.839 258.237 257.205L257.922 257.205Z" fill="#A00426"/>
<path fill-rule="evenodd" clip-rule="evenodd" d="M34.4765 382.628C31.0196 381.312 27.5625 379.995 28.5053 375.057C28.5053 374.069 27.8768 372.423 26.3054 372.423C25.0483 372.423 24.7341 373.411 24.4199 374.399C23.1628 378.349 20.02 378.678 17.5059 377.361C13.7346 375.715 9.33494 375.057 6.19224 371.765C7.76359 367.485 10.9063 366.498 14.049 368.144C11.8491 366.498 6.82066 367.156 9.02055 361.231C12.1633 363.535 16.8773 362.218 19.0772 366.498C19.7058 367.815 21.9056 366.498 23.1627 366.827C28.5053 367.815 33.848 366.827 38.562 370.448C38.562 371.107 38.2478 371.765 37.6192 372.423C34.7908 375.386 36.9906 379.995 34.1622 382.958L34.4765 382.628Z" fill="#A4052F"/>
<path fill-rule="evenodd" clip-rule="evenodd" d="M37.3043 370.448C37.9328 370.448 38.2471 370.448 38.8757 370.448C39.1899 370.448 39.8185 370.448 40.1328 370.448C43.2755 369.461 46.1038 369.132 49.2465 370.448C50.1893 377.691 43.5898 375.386 40.7614 376.703C38.2472 377.691 36.0473 374.399 36.9901 370.448L37.3043 370.448Z" fill="#AA093E"/>
<path fill-rule="evenodd" clip-rule="evenodd" d="M49.247 371.765C46.4186 369.461 43.2759 370.448 40.4475 370.119C41.3903 369.132 42.3331 368.802 43.5902 368.473C46.1043 368.473 48.6186 368.473 51.1327 368.473C52.0755 369.461 52.0755 370.448 51.4469 371.436C50.8184 371.765 50.1899 372.094 49.5614 371.436L49.247 371.765Z" fill="#A4052F"/>
<path fill-rule="evenodd" clip-rule="evenodd" d="M206.067 125.198C206.067 126.844 206.067 128.161 206.067 129.807C203.867 126.844 204.182 123.552 206.067 120.589L206.382 120.589C207.324 122.235 207.324 123.552 206.382 125.198L206.067 125.198Z" fill="#9A0426"/>
<path fill-rule="evenodd" clip-rule="evenodd" d="M237.18 109.726C237.18 108.409 237.809 107.422 238.751 106.763C238.751 108.08 238.123 109.068 237.18 109.726Z" fill="#9A0426"/>
<path fill-rule="evenodd" clip-rule="evenodd" d="M50.8182 371.765C50.8182 370.778 50.8182 369.79 50.8182 368.802C56.1608 367.815 58.0466 372.094 59.6179 375.715C62.1321 380.653 64.0177 380.983 66.8461 376.374C67.7889 376.374 68.7317 376.374 69.9888 376.374C70.6173 378.02 72.1887 379.007 72.1887 380.983C72.1887 384.274 69.6744 386.908 66.5317 386.579C64.0175 386.579 61.8177 385.92 59.3035 385.591C59.3035 384.933 59.3035 384.604 59.3035 383.945C59.9321 383.287 59.9321 382.958 59.3035 382.629C58.3607 382.629 57.418 382.629 56.4752 382.629C51.7612 384.604 52.0754 379.995 50.504 377.361C49.8755 375.386 49.2469 373.411 50.504 371.765L50.8182 371.765Z" fill="#AA093E"/>
<path fill-rule="evenodd" clip-rule="evenodd" d="M50.8181 371.765C51.4466 373.411 51.7609 374.728 52.3894 376.374C52.3894 376.703 52.3895 377.032 52.0752 377.361C50.1896 380.982 46.104 377.361 43.5899 379.995C41.7043 380.982 39.1901 379.336 37.3045 380.982C36.3617 381.641 35.419 381.97 34.4762 382.628C34.4762 380.982 34.7903 378.678 34.1618 377.361C31.0191 372.423 34.1619 371.436 37.6189 370.448C38.8759 372.094 39.8187 373.74 41.0758 375.057C43.5899 372.753 47.3612 374.728 49.5611 371.765C50.1896 371.765 50.5039 371.765 51.1324 371.765L50.8181 371.765Z" fill="#AE0E45"/>
<path fill-rule="evenodd" clip-rule="evenodd" d="M52.3902 376.374C54.2758 378.02 53.3331 382.299 56.79 382.628C56.1615 383.616 55.2186 384.933 53.9615 384.274C51.4474 382.628 47.9904 382.628 46.1048 379.336C47.9904 378.02 50.8189 378.678 52.076 376.044L52.3902 376.374Z" fill="#A4052F"/>
<path fill-rule="evenodd" clip-rule="evenodd" d="M52.0752 376.374C52.0752 380.983 48.9324 379.995 46.104 379.666C45.4754 379.666 45.1612 379.666 44.5326 379.666C44.2184 379.995 43.9041 380.324 43.5899 379.995C43.2756 379.995 42.9613 379.995 42.9613 379.666C45.4754 377.691 48.9326 377.691 51.761 376.703L52.0752 376.374Z" fill="#AA093E"/>
<path fill-rule="evenodd" clip-rule="evenodd" d="M43.2753 379.666C43.9039 379.666 44.2181 379.666 44.8467 379.666C42.6468 381.641 39.8183 380.982 37.3041 380.982C37.3041 379.336 37.3042 377.032 40.1326 379.007C41.0754 379.666 42.3324 379.336 43.5895 379.666L43.2753 379.666Z" fill="#A4052F"/>
<path fill-rule="evenodd" clip-rule="evenodd" d="M59.618 382.628C60.2465 382.958 60.2465 383.616 59.618 383.945C59.618 383.616 59.618 382.958 59.618 382.628Z" fill="#A4052F"/>
<path fill-rule="evenodd" clip-rule="evenodd" d="M218.01 -8.12586C219.581 -9.11345 220.838 -10.101 222.41 -11.0886C225.238 -13.393 228.695 -13.393 232.152 -14.3805C237.495 -15.6973 241.894 -11.0886 243.78 -3.18794C245.037 1.42079 241.894 9.97984 238.123 10.6382C233.409 11.6258 229.009 8.99227 224.61 8.33387C223.981 8.33387 223.981 7.01713 223.038 8.00471C222.724 9.32149 221.781 9.97984 220.838 10.6382C219.896 9.65065 218.953 8.66308 218.01 7.6755C215.496 5.37113 215.496 2.40838 216.438 -0.554373C217.067 -2.85874 218.324 -5.16309 218.01 -7.79665L218.01 -8.12586Z" fill="#A50634"/>
<path fill-rule="evenodd" clip-rule="evenodd" d="M223.981 6.02957C224.295 6.02957 224.924 6.68795 225.238 6.68795C229.638 5.70036 233.723 6.02958 237.809 10.3091C237.809 6.68797 236.237 2.73762 241.58 4.3836C242.523 4.3836 243.151 0.762474 242.208 -0.225111C240.323 -3.18786 239.066 -6.47984 237.809 -9.77179C236.866 -12.7345 233.723 -12.7345 231.523 -11.4178C228.381 -9.77179 225.552 -9.4426 222.41 -10.7594C222.41 -11.747 222.41 -12.7345 222.41 -13.7221C222.724 -14.3805 223.352 -14.7097 223.981 -15.3681C224.609 -15.3681 224.924 -15.3681 225.552 -15.3681C225.866 -15.0389 226.181 -14.7097 226.495 -15.0389C226.809 -15.0389 227.124 -15.0389 227.124 -15.3681C227.752 -15.3681 228.066 -15.3681 228.695 -15.3681C229.323 -15.0389 229.323 -14.3805 229.638 -13.7221C229.638 -14.3805 229.638 -15.0389 230.266 -15.6973C239.38 -18.0017 246.294 -12.7345 248.18 -1.54192C246.608 0.104053 245.351 2.07923 245.351 4.3836C245.351 10.6383 242.208 14.2594 237.809 16.893C234.666 19.1974 231.523 19.5266 228.695 15.9054C226.809 13.2719 223.667 12.6134 221.467 10.6383C221.467 8.33391 221.781 6.35876 224.295 6.02957L223.981 6.02957Z" fill="#A80939"/>
<path fill-rule="evenodd" clip-rule="evenodd" d="M218.01 -8.12573C219.582 -8.12573 220.21 -7.13814 219.582 -5.49216C218.325 -1.21263 218.01 3.06688 218.01 7.34641C213.296 7.34641 213.296 3.7253 213.925 0.433351C214.239 -1.87101 215.811 -4.1754 216.753 -6.47976C217.068 -7.13815 217.696 -7.46734 218.325 -8.12573L218.01 -8.12573Z" fill="#A80939"/>
<path fill-rule="evenodd" clip-rule="evenodd" d="M339.319 252.596C338.376 252.596 337.433 252.596 337.433 250.951C337.433 250.951 337.433 250.621 337.747 250.621C339.005 250.621 339.005 251.609 339.319 252.596Z" fill="#A70731"/>
<path fill-rule="evenodd" clip-rule="evenodd" d="M344.346 243.379C344.346 243.379 344.346 244.038 344.032 244.038C343.403 244.038 343.089 244.038 343.089 243.379C343.089 243.379 343.089 242.721 343.403 242.721C344.032 242.721 344.346 242.721 344.346 243.379Z" fill="#A80736"/>
<path fill-rule="evenodd" clip-rule="evenodd" d="M20.3346 241.075C23.4773 244.696 27.2484 247.329 24.7342 252.597C23.1629 256.218 21.2773 257.534 18.4488 256.218C15.3061 254.572 14.049 251.938 15.3061 248.646C16.5632 246.013 17.1917 243.379 20.0202 241.075L20.3346 241.075Z" fill="#AC0E3B"/>
<path fill-rule="evenodd" clip-rule="evenodd" d="M98.2735 384.274C97.0164 384.274 96.0736 384.933 95.445 385.92C95.1307 386.249 94.8165 386.25 94.5022 386.25C94.188 386.25 93.8737 386.249 93.8737 385.92C93.2451 385.262 92.9309 384.933 92.3023 384.274C91.6738 383.616 91.3595 383.287 90.731 382.628C92.3023 380.982 94.188 380.982 96.0736 381.641C98.2735 382.299 100.473 382.628 102.673 382.628C103.302 383.616 102.673 382.299 102.988 383.287C102.988 383.287 102.987 382.958 102.673 382.628C102.673 381.312 103.302 380.324 104.245 379.666C105.502 378.02 107.073 377.361 108.644 376.703C108.33 379.995 107.073 383.287 111.473 384.604C111.473 385.591 111.473 386.579 111.473 387.566C109.902 389.212 107.702 388.883 105.502 389.212C102.045 391.187 101.416 387.566 99.5305 386.25C98.5877 386.25 98.5877 385.262 97.9591 384.604L98.2735 384.274Z" fill="#B10D4B"/>
<path fill-rule="evenodd" clip-rule="evenodd" d="M126.243 384.274C123.415 385.92 120.272 386.908 117.444 384.274C118.701 380.324 123.729 382.629 124.672 378.678C126.557 380.653 126.243 382.628 126.243 384.274Z" fill="#B10D4B"/>
<path fill-rule="evenodd" clip-rule="evenodd" d="M115.872 384.274C114.301 384.274 113.044 384.274 111.472 384.274C112.101 382.958 112.415 380.982 113.987 380.982C115.558 380.982 115.872 382.958 115.872 384.274Z" fill="#B10D4B"/>
<path fill-rule="evenodd" clip-rule="evenodd" d="M117.443 384.274C117.129 384.274 116.815 384.274 116.5 384.604C116.5 384.604 116.5 384.604 116.186 384.274C116.815 384.274 117.129 384.274 117.758 384.274L117.443 384.274Z" fill="#B10D4B"/>
<path fill-rule="evenodd" clip-rule="evenodd" d="M129.071 385.92C128.757 385.92 128.443 386.25 128.129 386.25C128.129 386.25 128.128 386.25 127.814 385.92L129.385 385.92L129.071 385.92Z" fill="#B10D4B"/>
<path fill-rule="evenodd" clip-rule="evenodd" d="M93.559 385.92C94.1876 385.92 94.5018 385.92 95.1304 385.92C94.8161 385.92 94.5019 385.92 94.1876 386.25C94.1876 386.25 94.1875 386.25 93.8732 385.92L93.559 385.92Z" fill="#AE0B40"/>
<path fill-rule="evenodd" clip-rule="evenodd" d="M238.123 190.379C237.809 193.671 236.237 195.646 234.352 196.963C232.466 198.279 230.58 198.279 229.009 196.963C227.123 195.317 227.438 193.342 228.066 191.366C228.38 190.05 228.695 188.404 229.323 187.087C229.323 186.428 230.58 186.099 231.209 186.428C231.209 186.428 231.523 187.416 231.209 187.745C230.266 190.05 229.952 191.366 233.094 189.72C234.98 188.733 236.551 188.404 238.123 190.379Z" fill="#AF1147"/>
<path fill-rule="evenodd" clip-rule="evenodd" d="M238.751 202.888C238.751 205.192 238.123 207.167 237.18 209.143C233.199 208.045 231.732 205.083 232.78 200.254C234.351 202.888 235.294 206.509 238.751 202.888Z" fill="#B41B53"/>
<path fill-rule="evenodd" clip-rule="evenodd" d="M237.18 212.105C236.237 213.422 235.295 213.422 234.037 212.105C234.666 211.118 235.923 210.459 237.18 210.459C237.18 211.118 237.18 211.447 237.18 212.105Z" fill="#B41B53"/>
<path fill-rule="evenodd" clip-rule="evenodd" d="M222.41 199.596C221.467 198.938 221.153 197.621 221.153 196.304C222.096 197.292 222.41 198.279 222.41 199.596Z" fill="#AB1133"/>
<path fill-rule="evenodd" clip-rule="evenodd" d="M67.1597 376.374C64.3312 381.641 64.017 381.97 60.5601 379.007C58.3602 377.032 54.9032 376.045 54.2747 372.094C54.2747 370.448 52.0747 369.461 50.8176 368.473C57.4173 363.864 62.4456 364.523 67.1597 370.119C65.274 371.107 64.6456 373.082 63.7028 374.728C63.0742 375.715 60.56 376.044 62.4456 378.02C64.017 379.336 64.6456 377.361 65.9027 376.374C65.9027 376.374 66.8454 376.374 67.1597 376.374Z" fill="#A4052F"/>
<path fill-rule="evenodd" clip-rule="evenodd" d="M105.501 388.883C106.758 384.933 109.273 386.579 111.473 387.237C112.101 387.237 112.415 387.237 113.044 387.237C113.673 387.895 113.673 388.225 113.044 388.883C110.53 390.2 108.016 391.517 105.501 388.883Z" fill="#B50F50"/>
<path fill-rule="evenodd" clip-rule="evenodd" d="M126.243 390.529C125.615 390.529 124.986 390.858 124.358 390.529C124.043 390.529 124.043 389.871 124.358 389.542C124.986 389.542 125.615 389.542 125.929 390.2L126.243 390.529Z" fill="#B10D4B"/>
<path fill-rule="evenodd" clip-rule="evenodd" d="M98.2736 384.274C98.9022 384.933 99.2164 385.262 99.845 385.92C98.2736 386.579 98.5879 385.262 98.2736 384.274Z" fill="#B50F50"/>
<path fill-rule="evenodd" clip-rule="evenodd" d="M113.044 388.883L113.044 387.237C113.673 387.895 113.673 388.225 113.044 388.883Z" fill="#B10D4B"/>
<path fill-rule="evenodd" clip-rule="evenodd" d="M222.41 57.0549C222.41 58.3717 221.781 59.3593 220.839 60.0177C220.839 58.7009 221.467 57.7133 222.41 57.0549Z" fill="#93031D"/>
<path fill-rule="evenodd" clip-rule="evenodd" d="M292.177 240.087C292.492 240.746 293.12 241.075 293.434 241.733C292.806 241.075 292.492 240.746 292.177 240.087Z" fill="#9B0818"/>
<path fill-rule="evenodd" clip-rule="evenodd" d="M370.43 207.497C370.43 208.155 370.43 208.484 370.43 209.143C370.43 210.13 369.802 211.118 368.545 210.789C367.916 210.789 366.973 210.13 366.973 209.472C366.973 207.826 368.23 208.484 369.173 208.155C369.487 208.155 370.116 207.826 370.43 207.497Z" fill="#B1104C"/>
<path fill-rule="evenodd" clip-rule="evenodd" d="M170.555 61.6636C170.555 60.0177 170.555 58.7009 170.555 57.0549C172.126 58.7009 172.126 60.0177 170.555 61.6636Z" fill="#A70737"/>
<path fill-rule="evenodd" clip-rule="evenodd" d="M185.325 89.645C184.697 90.6326 183.44 90.9618 182.497 91.291C183.125 90.3034 184.383 89.9742 185.325 89.645Z" fill="#A10528"/>
<path fill-rule="evenodd" clip-rule="evenodd" d="M188.469 87.999C187.84 88.9866 186.583 89.3158 185.64 89.645C186.269 88.6574 187.526 88.3282 188.469 87.999Z" fill="#A10528"/>
<path fill-rule="evenodd" clip-rule="evenodd" d="M9.33477 361.231C9.96331 364.194 12.1631 365.51 14.363 366.169C17.82 367.156 18.1342 369.79 18.4485 374.069C16.2486 371.436 15.3059 369.461 12.4775 369.461C9.96331 369.461 8.39188 371.107 6.50626 371.765C6.50626 370.778 6.19203 369.79 5.56349 368.802C3.67787 364.633 4.93499 361.999 9.33477 360.902L9.33477 361.231Z" fill="#AF0D4C"/>
<path fill-rule="evenodd" clip-rule="evenodd" d="M206.068 125.198C206.068 123.552 206.068 122.235 206.068 120.589C207.325 120.589 208.897 120.26 209.211 121.906C209.211 124.21 207.954 124.869 206.068 125.198Z" fill="#B11D4F"/>
<path fill-rule="evenodd" clip-rule="evenodd" d="M237.18 16.5639C235.295 16.5639 233.409 17.2223 231.523 15.9055C234.666 10.9676 234.666 10.9676 237.18 16.5639Z" fill="#B2184E"/>
<path fill-rule="evenodd" clip-rule="evenodd" d="M102.673 382.628C103.302 383.287 104.245 384.933 103.616 384.933C101.73 384.933 102.987 383.287 102.673 382.628Z" fill="#B50F50"/>
</svg>
